<mxfile host="app.diagrams.net" modified="2023-01-25T17:32:47.820Z" agent="5.0 (Windows NT 10.0; Win64; x64) AppleWebKit/537.36 (KHTML, like Gecko) Chrome/109.0.0.0 Safari/537.36" etag="RBQp3hXEo30gP_KVPpCq" version="20.8.11" type="github">
  <diagram name="Page-1" id="9f46799a-70d6-7492-0946-bef42562c5a5">
    <mxGraphModel dx="2787" dy="888" grid="1" gridSize="10" guides="1" tooltips="1" connect="1" arrows="1" fold="1" page="1" pageScale="1" pageWidth="1100" pageHeight="850" background="none" math="0" shadow="0">
      <root>
        <mxCell id="0" />
        <mxCell id="1" parent="0" />
        <mxCell id="78961159f06e98e8-122" style="edgeStyle=elbowEdgeStyle;html=1;labelBackgroundColor=none;startFill=0;startSize=8;endArrow=open;endFill=0;endSize=16;fontFamily=Verdana;fontSize=12;elbow=vertical;dashed=1;" parent="1" target="78961159f06e98e8-43" edge="1">
          <mxGeometry relative="1" as="geometry">
            <mxPoint x="1100" y="122" as="sourcePoint" />
          </mxGeometry>
        </mxCell>
        <mxCell id="W2HCOL37wiZwmyropwP6-4" value="" style="whiteSpace=wrap;html=1;aspect=fixed;" vertex="1" parent="1">
          <mxGeometry x="880" y="120" width="520" height="520" as="geometry" />
        </mxCell>
        <mxCell id="W2HCOL37wiZwmyropwP6-15" value="" style="endArrow=classic;html=1;rounded=0;" edge="1" parent="W2HCOL37wiZwmyropwP6-4">
          <mxGeometry width="50" height="50" relative="1" as="geometry">
            <mxPoint x="260" y="159" as="sourcePoint" />
            <mxPoint x="190" y="160" as="targetPoint" />
          </mxGeometry>
        </mxCell>
        <mxCell id="W2HCOL37wiZwmyropwP6-29" value="AccessControlDTO" style="swimlane;html=1;fontStyle=1;align=center;verticalAlign=top;childLayout=stackLayout;horizontal=1;startSize=26;horizontalStack=0;resizeParent=1;resizeLast=0;collapsible=1;marginBottom=0;swimlaneFillColor=#ffffff;rounded=0;shadow=0;comic=0;labelBackgroundColor=none;strokeWidth=1;fillColor=none;fontFamily=Verdana;fontSize=12" vertex="1" parent="W2HCOL37wiZwmyropwP6-4">
          <mxGeometry x="181.3953488372093" y="350.6976744186046" width="193.48837209302326" height="157.20930232558138" as="geometry" />
        </mxCell>
        <mxCell id="W2HCOL37wiZwmyropwP6-30" value="" style="line;html=1;strokeWidth=1;fillColor=none;align=left;verticalAlign=middle;spacingTop=-1;spacingLeft=3;spacingRight=3;rotatable=0;labelPosition=right;points=[];portConstraint=eastwest;" vertex="1" parent="W2HCOL37wiZwmyropwP6-29">
          <mxGeometry y="26" width="193.48837209302326" height="9.674418604651162" as="geometry" />
        </mxCell>
        <mxCell id="W2HCOL37wiZwmyropwP6-5" value="Domain.User" style="text;strokeColor=none;fillColor=none;html=1;fontSize=24;fontStyle=1;verticalAlign=middle;align=center;" vertex="1" parent="W2HCOL37wiZwmyropwP6-4">
          <mxGeometry width="193.48837209302326" height="48.372093023255815" as="geometry" />
        </mxCell>
        <mxCell id="W2HCOL37wiZwmyropwP6-42" value="" style="endArrow=classic;startArrow=classic;html=1;rounded=0;fontSize=17;exitX=1;exitY=0.422;exitDx=0;exitDy=0;exitPerimeter=0;" edge="1" parent="W2HCOL37wiZwmyropwP6-4" source="W2HCOL37wiZwmyropwP6-32">
          <mxGeometry width="50" height="50" relative="1" as="geometry">
            <mxPoint x="-181.3953488372093" y="181.3953488372093" as="sourcePoint" />
            <mxPoint y="181.3953488372093" as="targetPoint" />
          </mxGeometry>
        </mxCell>
        <mxCell id="W2HCOL37wiZwmyropwP6-43" value="" style="endArrow=classic;html=1;rounded=0;" edge="1" parent="W2HCOL37wiZwmyropwP6-4">
          <mxGeometry width="50" height="50" relative="1" as="geometry">
            <mxPoint x="181.3953488372093" y="399.06976744186045" as="sourcePoint" />
            <mxPoint x="80" y="240" as="targetPoint" />
          </mxGeometry>
        </mxCell>
        <mxCell id="78961159f06e98e8-43" value="AccessControlService" style="swimlane;html=1;fontStyle=1;align=center;verticalAlign=top;childLayout=stackLayout;horizontal=1;startSize=26;horizontalStack=0;resizeParent=1;resizeLast=0;collapsible=1;marginBottom=0;swimlaneFillColor=#ffffff;rounded=0;shadow=0;comic=0;labelBackgroundColor=none;strokeWidth=1;fillColor=none;fontFamily=Verdana;fontSize=12" parent="1" vertex="1">
          <mxGeometry x="1140" y="230" width="160" height="130" as="geometry" />
        </mxCell>
        <mxCell id="78961159f06e98e8-51" value="" style="line;html=1;strokeWidth=1;fillColor=none;align=left;verticalAlign=middle;spacingTop=-1;spacingLeft=3;spacingRight=3;rotatable=0;labelPosition=right;points=[];portConstraint=eastwest;" parent="78961159f06e98e8-43" vertex="1">
          <mxGeometry y="26" width="160" height="8" as="geometry" />
        </mxCell>
        <mxCell id="W2HCOL37wiZwmyropwP6-6" value="AccessControlController" style="swimlane;html=1;fontStyle=1;align=center;verticalAlign=top;childLayout=stackLayout;horizontal=1;startSize=26;horizontalStack=0;resizeParent=1;resizeLast=0;collapsible=1;marginBottom=0;swimlaneFillColor=#ffffff;rounded=0;shadow=0;comic=0;labelBackgroundColor=none;strokeWidth=1;fillColor=none;fontFamily=Verdana;fontSize=12" vertex="1" parent="1">
          <mxGeometry x="890" y="230" width="180" height="130" as="geometry" />
        </mxCell>
        <mxCell id="W2HCOL37wiZwmyropwP6-7" value="" style="line;html=1;strokeWidth=1;fillColor=none;align=left;verticalAlign=middle;spacingTop=-1;spacingLeft=3;spacingRight=3;rotatable=0;labelPosition=right;points=[];portConstraint=eastwest;" vertex="1" parent="W2HCOL37wiZwmyropwP6-6">
          <mxGeometry y="26" width="180" height="8" as="geometry" />
        </mxCell>
        <mxCell id="W2HCOL37wiZwmyropwP6-16" style="edgeStyle=elbowEdgeStyle;html=1;labelBackgroundColor=none;startFill=0;startSize=8;endArrow=open;endFill=0;endSize=16;fontFamily=Verdana;fontSize=12;elbow=vertical;dashed=1;" edge="1" parent="1" target="W2HCOL37wiZwmyropwP6-19">
          <mxGeometry relative="1" as="geometry">
            <mxPoint x="50" y="122" as="sourcePoint" />
          </mxGeometry>
        </mxCell>
        <mxCell id="W2HCOL37wiZwmyropwP6-17" value="" style="whiteSpace=wrap;html=1;aspect=fixed;" vertex="1" parent="1">
          <mxGeometry x="-170" y="120" width="520" height="520" as="geometry" />
        </mxCell>
        <mxCell id="W2HCOL37wiZwmyropwP6-26" value="" style="endArrow=classic;html=1;rounded=0;" edge="1" parent="W2HCOL37wiZwmyropwP6-17">
          <mxGeometry width="50" height="50" relative="1" as="geometry">
            <mxPoint x="180" y="180" as="sourcePoint" />
            <mxPoint x="340" y="180" as="targetPoint" />
          </mxGeometry>
        </mxCell>
        <mxCell id="W2HCOL37wiZwmyropwP6-21" value="Monolito" style="text;strokeColor=none;fillColor=none;html=1;fontSize=24;fontStyle=1;verticalAlign=middle;align=center;" vertex="1" parent="W2HCOL37wiZwmyropwP6-17">
          <mxGeometry width="133.02325581395348" height="48.372093023255815" as="geometry" />
        </mxCell>
        <mxCell id="W2HCOL37wiZwmyropwP6-19" value="AccessControlService" style="swimlane;html=1;fontStyle=1;align=center;verticalAlign=top;childLayout=stackLayout;horizontal=1;startSize=26;horizontalStack=0;resizeParent=1;resizeLast=0;collapsible=1;marginBottom=0;swimlaneFillColor=#ffffff;rounded=0;shadow=0;comic=0;labelBackgroundColor=none;strokeWidth=1;fillColor=none;fontFamily=Verdana;fontSize=12" vertex="1" parent="W2HCOL37wiZwmyropwP6-17">
          <mxGeometry x="340" y="100" width="160" height="130" as="geometry" />
        </mxCell>
        <mxCell id="W2HCOL37wiZwmyropwP6-20" value="" style="line;html=1;strokeWidth=1;fillColor=none;align=left;verticalAlign=middle;spacingTop=-1;spacingLeft=3;spacingRight=3;rotatable=0;labelPosition=right;points=[];portConstraint=eastwest;" vertex="1" parent="W2HCOL37wiZwmyropwP6-19">
          <mxGeometry y="26" width="160" height="8" as="geometry" />
        </mxCell>
        <mxCell id="W2HCOL37wiZwmyropwP6-24" value="Entities.AccessControl" style="swimlane;html=1;fontStyle=1;align=center;verticalAlign=top;childLayout=stackLayout;horizontal=1;startSize=26;horizontalStack=0;resizeParent=1;resizeLast=0;collapsible=1;marginBottom=0;swimlaneFillColor=#ffffff;rounded=0;shadow=0;comic=0;labelBackgroundColor=none;strokeWidth=1;fillColor=none;fontFamily=Verdana;fontSize=12" vertex="1" parent="1">
          <mxGeometry x="-150" y="220" width="160" height="130" as="geometry" />
        </mxCell>
        <mxCell id="W2HCOL37wiZwmyropwP6-25" value="" style="line;html=1;strokeWidth=1;fillColor=none;align=left;verticalAlign=middle;spacingTop=-1;spacingLeft=3;spacingRight=3;rotatable=0;labelPosition=right;points=[];portConstraint=eastwest;" vertex="1" parent="W2HCOL37wiZwmyropwP6-24">
          <mxGeometry y="26" width="160" height="8" as="geometry" />
        </mxCell>
        <mxCell id="W2HCOL37wiZwmyropwP6-32" value="" style="whiteSpace=wrap;html=1;aspect=fixed;" vertex="1" parent="1">
          <mxGeometry x="440" y="155" width="280" height="280" as="geometry" />
        </mxCell>
        <mxCell id="W2HCOL37wiZwmyropwP6-33" value="ABSCardSDK" style="text;strokeColor=none;fillColor=none;html=1;fontSize=17;fontStyle=1;verticalAlign=middle;align=center;" vertex="1" parent="1">
          <mxGeometry x="440" y="155" width="130" height="40" as="geometry" />
        </mxCell>
        <mxCell id="W2HCOL37wiZwmyropwP6-34" value="IJsonApiClient" style="swimlane;html=1;fontStyle=1;align=center;verticalAlign=top;childLayout=stackLayout;horizontal=1;startSize=26;horizontalStack=0;resizeParent=1;resizeLast=0;collapsible=1;marginBottom=0;swimlaneFillColor=#ffffff;rounded=0;shadow=0;comic=0;labelBackgroundColor=none;strokeWidth=1;fillColor=none;fontFamily=Verdana;fontSize=12" vertex="1" parent="1">
          <mxGeometry x="500" y="245" width="160" height="130" as="geometry" />
        </mxCell>
        <mxCell id="W2HCOL37wiZwmyropwP6-35" value="" style="line;html=1;strokeWidth=1;fillColor=none;align=left;verticalAlign=middle;spacingTop=-1;spacingLeft=3;spacingRight=3;rotatable=0;labelPosition=right;points=[];portConstraint=eastwest;" vertex="1" parent="W2HCOL37wiZwmyropwP6-34">
          <mxGeometry y="26" width="160" height="8" as="geometry" />
        </mxCell>
        <mxCell id="W2HCOL37wiZwmyropwP6-41" value="" style="endArrow=classic;startArrow=classic;html=1;rounded=0;fontSize=17;exitX=1.008;exitY=0.351;exitDx=0;exitDy=0;exitPerimeter=0;" edge="1" parent="1" source="W2HCOL37wiZwmyropwP6-17" target="W2HCOL37wiZwmyropwP6-32">
          <mxGeometry width="50" height="50" relative="1" as="geometry">
            <mxPoint x="313.7209302325581" y="325.5813953488372" as="sourcePoint" />
            <mxPoint x="374.18604651162786" y="265.1162790697674" as="targetPoint" />
          </mxGeometry>
        </mxCell>
      </root>
    </mxGraphModel>
  </diagram>
</mxfile>
